<svg width="17" height="16" viewBox="0 0 17 16" fill="none" xmlns="http://www.w3.org/2000/svg">
<path d="M8.8335 8C7.7335 8 6.79183 7.60833 6.0085 6.825C5.22516 6.04167 4.8335 5.1 4.8335 4C4.8335 2.9 5.22516 1.95833 6.0085 1.175C6.79183 0.391667 7.7335 0 8.8335 0C9.9335 0 10.8752 0.391667 11.6585 1.175C12.4418 1.95833 12.8335 2.9 12.8335 4C12.8335 5.1 12.4418 6.04167 11.6585 6.825C10.8752 7.60833 9.9335 8 8.8335 8ZM0.833496 16V13.2C0.833496 12.6333 0.979329 12.1125 1.271 11.6375C1.56266 11.1625 1.95016 10.8 2.4335 10.55C3.46683 10.0333 4.51683 9.64583 5.5835 9.3875C6.65016 9.12917 7.7335 9 8.8335 9C9.9335 9 11.0168 9.12917 12.0835 9.3875C13.1502 9.64583 14.2002 10.0333 15.2335 10.55C15.7168 10.8 16.1043 11.1625 16.396 11.6375C16.6877 12.1125 16.8335 12.6333 16.8335 13.2V16H0.833496ZM2.8335 14H14.8335V13.2C14.8335 13.0167 14.7877 12.85 14.696 12.7C14.6043 12.55 14.4835 12.4333 14.3335 12.35C13.4335 11.9 12.5252 11.5625 11.6085 11.3375C10.6918 11.1125 9.76683 11 8.8335 11C7.90016 11 6.97516 11.1125 6.0585 11.3375C5.14183 11.5625 4.2335 11.9 3.3335 12.35C3.1835 12.4333 3.06266 12.55 2.971 12.7C2.87933 12.85 2.8335 13.0167 2.8335 13.2V14ZM8.8335 6C9.3835 6 9.85433 5.80417 10.246 5.4125C10.6377 5.02083 10.8335 4.55 10.8335 4C10.8335 3.45 10.6377 2.97917 10.246 2.5875C9.85433 2.19583 9.3835 2 8.8335 2C8.2835 2 7.81266 2.19583 7.421 2.5875C7.02933 2.97917 6.8335 3.45 6.8335 4C6.8335 4.55 7.02933 5.02083 7.421 5.4125C7.81266 5.80417 8.2835 6 8.8335 6Z" fill="#02369C"/>
</svg>
